<svg xmlns="http://www.w3.org/2000/svg" viewBox="0 0 640 360" width="100%" height="100%">
  <defs>
    <linearGradient id="g1" x1="0" y1="0" x2="1" y2="1">
      <stop offset="0%" stop-color="#667eea"/>
      <stop offset="100%" stop-color="#764ba2"/>
    </linearGradient>
  </defs>
  <rect width="640" height="360" rx="24" fill="#f1f5f9"/>
  <g transform="translate(40,40)">
    <rect x="0" y="0" width="560" height="280" rx="16" fill="#ffffff" stroke="#e5e7eb"/>
    <rect x="24" y="24" width="180" height="24" rx="6" fill="url(#g1)"/>
    <rect x="24" y="72" width="200" height="140" rx="12" fill="#eef2ff" stroke="#c7d2fe"/>
    <rect x="248" y="72" width="200" height="140" rx="12" fill="#ecfeff" stroke="#a5f3fc"/>
    <rect x="472" y="72" width="64" height="140" rx="12" fill="#fef3c7" stroke="#fde68a"/>
    <circle cx="324" cy="142" r="18" fill="#10b981"/>
    <path d="M316 142h16" stroke="#ffffff" stroke-width="3" stroke-linecap="round"/>
    <path d="M324 134v16" stroke="#ffffff" stroke-width="3" stroke-linecap="round"/>
    <g fill="#cbd5e1">
      <rect x="32" y="88" width="160" height="10" rx="5"/>
      <rect x="32" y="108" width="120" height="10" rx="5"/>
      <rect x="32" y="128" width="140" height="10" rx="5"/>
    </g>
    <g fill="#cbd5e1">
      <rect x="256" y="88" width="160" height="10" rx="5"/>
      <rect x="256" y="108" width="120" height="10" rx="5"/>
      <rect x="256" y="128" width="140" height="10" rx="5"/>
    </g>
    <g fill="#cbd5e1">
      <rect x="480" y="88" width="48" height="10" rx="5"/>
      <rect x="480" y="108" width="48" height="10" rx="5"/>
      <rect x="480" y="128" width="48" height="10" rx="5"/>
    </g>
    <path d="M224 142h24" stroke="#94a3b8" stroke-width="3" stroke-linecap="round"/>
    <path d="M448 142h24" stroke="#94a3b8" stroke-width="3" stroke-linecap="round"/>
  </g>
</svg>

