<svg xmlns="http://www.w3.org/2000/svg" viewBox="0 0 640 360">
  <defs>
    <linearGradient id="gd" x1="0" y1="0" x2="1" y2="1">
      <stop offset="0%" stop-color="#22d3ee"/>
      <stop offset="100%" stop-color="#2563eb"/>
    </linearGradient>
  </defs>
  <rect width="640" height="360" rx="24" fill="#eef2ff"/>
  <g transform="translate(40,40)">
    <rect x="0" y="0" width="560" height="280" rx="16" fill="#ffffff" stroke="#e5e7eb"/>
    <rect x="24" y="24" width="320" height="200" rx="12" fill="#0f172a"/>
    <g fill="#334155">
      <rect x="368" y="24" width="168" height="16" rx="8"/>
      <rect x="368" y="48" width="120" height="10" rx="5"/>
      <rect x="368" y="68" width="140" height="10" rx="5"/>
      <rect x="368" y="88" width="100" height="10" rx="5"/>
    </g>
    <g>
      <rect x="48" y="56" width="248" height="10" rx="5" fill="#22d3ee"/>
      <rect x="48" y="78" width="180" height="10" rx="5" fill="#93c5fd"/>
      <rect x="48" y="100" width="220" height="10" rx="5" fill="#60a5fa"/>
      <rect x="48" y="122" width="120" height="10" rx="5" fill="#a5b4fc"/>
      <rect x="48" y="144" width="200" height="10" rx="5" fill="#22d3ee"/>
    </g>
    <circle cx="424" cy="180" r="36" fill="url(#gd)"/>
    <rect x="404" y="168" width="40" height="6" rx="3" fill="#ffffff"/>
    <rect x="404" y="186" width="40" height="6" rx="3" fill="#ffffff"/>
  </g>
</svg>

