<svg xmlns="http://www.w3.org/2000/svg" viewBox="0 0 640 360">
  <defs>
    <linearGradient id="gm" x1="0" y1="0" x2="1" y2="1">
      <stop offset="0%" stop-color="#f59e0b"/>
      <stop offset="100%" stop-color="#ef4444"/>
    </linearGradient>
  </defs>
  <rect width="640" height="360" rx="24" fill="#fff7ed"/>
  <g transform="translate(40,40)">
    <rect x="0" y="0" width="560" height="280" rx="16" fill="#ffffff" stroke="#fde68a"/>
    <g>
      <rect x="40" y="40" width="160" height="100" rx="12" fill="#fee2e2" stroke="#fecaca"/>
      <rect x="220" y="40" width="160" height="100" rx="12" fill="#ffedd5" stroke="#fed7aa"/>
      <rect x="400" y="40" width="120" height="180" rx="12" fill="#dcfce7" stroke="#bbf7d0"/>
    </g>
    <g>
      <rect x="52" y="56" width="120" height="10" rx="5" fill="#ef4444"/>
      <rect x="232" y="56" width="120" height="10" rx="5" fill="#f59e0b"/>
      <rect x="412" y="56" width="96" height="10" rx="5" fill="#10b981"/>
      <rect x="412" y="76" width="96" height="10" rx="5" fill="#10b981"/>
      <rect x="412" y="96" width="96" height="10" rx="5" fill="#10b981"/>
      <rect x="412" y="116" width="96" height="10" rx="5" fill="#10b981"/>
    </g>
    <path d="M260 200c40-40 80 40 120 0" fill="none" stroke="url(#gm)" stroke-width="6" stroke-linecap="round"/>
    <circle cx="260" cy="200" r="6" fill="#f59e0b"/>
    <circle cx="380" cy="200" r="6" fill="#ef4444"/>
  </g>
</svg>

